<?xml version="1.0" encoding="utf-8"?>
<!-- Generator: Adobe Illustrator 23.0.2, SVG Export Plug-In . SVG Version: 6.00 Build 0)  -->
<svg version="1.1" id="Layer_1" xmlns="http://www.w3.org/2000/svg" xmlns:xlink="http://www.w3.org/1999/xlink" x="0px" y="0px"
	 viewBox="0 0 15 16" style="enable-background:new 0 0 15 16;" xml:space="preserve">
<style type="text/css">
	.st0{fill:#354C86;}
</style>
<path class="st0" d="M8.6,7.5L12.1,4c0.3-0.3,0.3-0.8,0-1.1S11.3,2.7,11,3L7.5,6.5L4,3C3.7,2.7,3.2,2.7,3,3S2.7,3.7,3,4l3.5,3.5
	L3,11c-0.3,0.3-0.3,0.8,0,1.1c0.1,0.1,0.3,0.2,0.5,0.2s0.4-0.1,0.5-0.2l3.5-3.5l3.5,3.5c0.1,0.1,0.3,0.2,0.5,0.2s0.4-0.1,0.5-0.2
	c0.3-0.3,0.3-0.8,0-1.1L8.6,7.5z"/>
</svg>
